<svg width="1056" height="480" viewBox="0 0 1056 480" fill="none" xmlns="http://www.w3.org/2000/svg">
<path fill-rule="evenodd" clip-rule="evenodd" d="M301.974 221.262C301.249 222.682 300.636 224.156 300.086 225.651C294.582 240.618 286.004 261.142 278.454 277.919C274.679 286.307 271.144 293.798 268.365 299.21C266.98 301.907 265.754 304.145 264.761 305.734C264.272 306.517 263.786 307.23 263.323 307.78C263.097 308.048 262.801 308.37 262.445 308.649C262.192 308.848 261.406 309.44 260.27 309.44C258.73 309.44 257.863 308.411 257.584 308.026C257.252 307.567 257.058 307.082 256.942 306.751C256.698 306.053 256.519 305.189 256.374 304.3C256.076 302.475 255.83 299.931 255.62 296.923C255.2 290.878 254.907 282.627 254.703 273.733C254.295 255.929 254.238 235.372 254.238 224.328C254.238 219.514 253.067 216.952 251.556 215.674L251.461 215.594L251.373 215.505C249.869 214.002 247.161 212.928 242.55 212.928C236.32 212.928 232.197 214.134 229.685 216.055C227.46 217.756 225.865 221.066 225.678 226.967V237C225.678 252.772 226.387 270.637 227.809 290.6L227.9 291.873L227.046 292.821C221.053 299.475 215.813 304.542 211.341 307.934L211.315 307.954L211.288 307.974C205.271 312.33 198.81 314.592 191.96 314.592C184.789 314.592 179.068 311.918 175.352 306.344L175.336 306.321L175.321 306.297C171.777 300.76 170.24 292.465 170.24 281.928C170.24 269.942 172.295 252.642 176.335 230.134L176.337 230.124L176.339 230.114C180.572 207.406 185.195 186.698 190.207 167.993C190.748 165.824 190.976 164.175 190.976 162.984C190.976 159.479 189.702 157.166 187.233 155.566C184.539 153.82 180.116 152.736 173.528 152.736C168.06 152.736 164.014 153.654 161.161 155.238C158.728 156.59 156.778 159.304 155.732 164.159C148.618 201.068 141.39 230.392 134.033 252.076C126.688 273.725 118.46 289.743 109.208 299.799C99.8794 309.939 88.8354 315.168 76.184 315.168C64.8002 315.168 55.4819 310.247 48.4275 300.703L48.4058 300.674L48.3848 300.644C41.5613 290.926 38.336 277.56 38.336 260.904C38.336 238.054 42.6349 216.715 51.2577 196.922C59.9239 177.029 73.0489 161.032 90.6067 148.996C108.278 136.689 129.635 130.608 154.52 130.608C162.524 130.608 170.16 131.193 177.425 132.368C184.642 133.345 193.269 134.996 203.291 137.309L203.317 137.315L203.344 137.322C203.744 137.422 204.597 137.52 206.072 137.52C210.031 137.52 213.547 135.825 216.719 131.985L216.743 131.956L216.768 131.927C220.22 127.958 221.792 123.931 221.792 119.784C221.792 117.138 221.214 115.296 220.318 114.016C219.442 112.764 218.063 111.765 215.904 111.149L215.851 111.134L215.799 111.117C207.746 108.495 198.713 106.514 188.687 105.19L188.68 105.189C178.81 103.861 169.537 103.2 160.856 103.2C127.133 103.2 98.4252 110.679 74.6006 125.499L74.5933 125.504L74.5861 125.508C50.6664 140.199 32.6262 159.752 20.4033 184.198L20.3991 184.206C8.14116 208.533 2 235.044 2 263.784C2 280.314 5.00405 294.528 10.9035 306.515C16.8235 318.351 24.81 327.311 34.8397 333.514C45.0942 339.737 56.547 342.864 69.272 342.864C82.5234 342.864 94.049 339.31 103.966 332.259C113.912 325.187 122.403 314.479 129.349 299.932L133.58 291.07L135.023 300.783C137.062 314.496 142.013 324.857 149.664 332.16C157.26 339.219 167.323 342.864 180.152 342.864C192.744 342.864 203.18 339.999 211.62 334.432C216.583 331.158 221.647 327.014 226.81 321.976L230.448 318.426L231.797 323.327C233.146 328.226 234.873 332.039 236.905 334.873C240.928 340.223 246.262 342.864 253.206 342.864C259 342.864 263.848 341.382 267.888 338.52L267.912 338.503L267.935 338.487C272.163 335.612 276.589 330.236 281.101 321.964L281.113 321.941L281.126 321.918C289.154 307.789 302.295 284.733 302.295 284.733C303.128 291.488 303.655 297.494 304.295 307.349C304.935 317.205 304.295 307.351 304.295 307.351C305.245 320.841 307.602 329.987 311.005 335.281C314.434 340.326 319.317 342.864 326.07 342.864C332.353 342.864 337.861 341.047 342.702 337.416L342.722 337.401L342.743 337.386C347.893 333.657 354.284 326.508 361.917 315.632C368.607 306.074 374.719 296.811 380.253 287.841L381.471 285.866L383.689 286.549C390.869 288.758 398.538 289.872 406.71 289.872C408.179 289.872 409.633 289.84 411.074 289.776L414.412 289.627L414.201 292.962C414.077 294.932 414.014 296.918 414.014 298.92C414.014 312.422 417.428 323.02 423.988 330.999C430.481 338.896 439.11 342.864 450.182 342.864C464.044 342.864 475.765 335.592 485.36 320.093L488.633 314.805L490.734 320.658C493.267 327.715 496.918 333.186 501.619 337.206C506.497 341.025 511.695 342.864 517.286 342.864C524.693 342.864 532.614 339.855 541.102 333.397C544.987 330.441 548.783 327.175 552.491 323.597L555.661 320.538L557.346 324.608C558.298 326.905 559.393 329.033 560.629 330.996C565.728 338.801 573.792 342.864 585.464 342.864C600.56 342.864 617.547 332.186 636.422 309.116L636.447 309.085L636.473 309.055C636.654 308.846 636.829 308.632 637 308.412L640.303 304.151L642.182 309.204C646.43 320.62 652.62 328.97 660.649 334.488C668.682 340.009 678.799 342.864 691.187 342.864C703.314 342.864 713.958 339.75 723.219 333.576C727.766 330.545 732.149 327.104 736.37 323.25L739.549 320.347L741.172 324.335C742.149 326.737 743.282 328.957 744.567 330.998C749.666 338.801 757.73 342.864 769.401 342.864C780.441 342.864 792.52 337.165 805.692 324.932L809.592 321.31L810.671 326.522C811.212 329.134 811.841 331.374 812.546 333.26C813.931 336.711 815.697 339.07 817.726 340.573C819.735 342.061 822.207 342.864 825.3 342.864C830.792 342.864 834.105 341.449 836.003 339.281L836.011 339.271C838.36 336.608 840.728 331.11 842.827 322.14L842.831 322.124L842.835 322.108C845.754 310.238 849.551 298.939 854.231 288.216L854.24 288.195L854.249 288.175C859.091 277.522 863.785 268.896 868.343 262.357L868.348 262.349L868.353 262.342C870.711 259.001 872.893 256.358 874.894 254.519C876.774 252.792 879.016 251.28 881.46 251.28C883.351 251.28 885.139 252.032 886.308 253.732C887.338 255.23 887.628 257.101 887.628 258.888C887.628 263.842 886.314 272.473 883.825 284.536C881.136 298.369 879.852 307.697 879.852 312.744C879.852 323.055 882.244 330.502 886.591 335.529C890.852 340.268 897.31 342.864 906.516 342.864C918.037 342.864 928.185 339.767 937.062 333.607L937.074 333.599L937.085 333.591C941.003 330.927 944.812 327.947 948.511 324.647L951.285 322.172L953.118 325.406C954.243 327.391 955.522 329.254 956.957 330.999C963.45 338.896 972.078 342.864 983.151 342.864C987.791 342.864 992.498 341.667 997.303 339.179C1009.26 332.763 1015.68 323.353 1012.72 342.609L1011.77 343.342C982.263 366.142 962.411 385.108 951.931 400.263C941.389 415.699 936.327 429.801 936.327 442.632C936.327 451.74 939.156 458.79 944.631 464.093L944.648 464.11L944.665 464.127C950.173 469.635 957.341 472.464 966.447 472.464C985.408 472.464 1001.13 459.427 1013.22 431.087L1013.23 431.076L1013.23 431.065C1025.56 402.801 1035.4 364.022 1042.68 314.611C1043.46 309.181 1045.29 298.107 1048.16 281.432C1052.19 256.652 1054.58 241.354 1055.34 235.464L1055.35 235.444L1055.35 235.424C1055.51 234.284 1055.61 232.621 1055.61 230.376C1055.61 226.463 1054.61 225.051 1053.83 224.555L1053.69 224.468L1053.57 224.367C1052.49 223.506 1050.03 222.72 1045.36 222.72C1040.71 222.72 1036.7 223.093 1033.31 223.808L1030.42 224.416L1029.76 221.537C1028.82 217.413 1027.72 215.255 1026.82 214.353L1026.69 214.221L1026.58 214.074C1026.15 213.531 1024.68 212.64 1020.59 212.64C1008.03 212.64 996.05 216.632 984.6 224.759L984.592 224.764C973.309 232.718 964.209 243.373 957.308 256.803L957.304 256.811L957.3 256.818C950.693 269.496 947.264 282.925 947 297.138L946.979 298.273L946.212 299.109C942.303 303.374 938.854 306.849 935.874 309.51L935.869 309.514C930.533 314.257 925.313 317.184 920.34 317.184C916.785 317.184 913.707 315.906 911.647 313.065C909.718 310.403 908.988 306.777 908.988 302.664C908.988 296.906 910.896 285.543 914.528 268.911L914.529 268.904C918.758 249.298 920.796 236.06 920.796 228.936C920.796 223.158 919.354 219.376 916.995 217.017C914.636 214.658 910.854 213.216 905.076 213.216C899.437 213.216 892.954 215.185 885.563 219.432C878.539 223.578 871.139 230.639 863.402 240.83C852.005 255.841 842.5 273.5 838 286.5C837.224 269.431 840.166 253.583 844.278 237.136L844.284 237.112L844.29 237.088C845.723 231.739 846.787 227.383 847.491 224.004C848.209 220.558 848.508 218.327 848.508 217.128C848.508 214.936 847.897 214.377 847.614 214.2C846.852 213.723 844.92 213.216 841.14 213.216C834.367 213.216 829.46 214.505 826.1 216.744L826.086 216.754L826.071 216.763C822.964 218.783 820.528 222.148 818.949 227.233L818.947 227.241L818.945 227.249C812.428 247.855 808.936 269.544 808.48 292.325L808.458 293.414L807.743 294.236C802.179 300.624 797.465 305.621 793.615 309.185C788.369 314.043 783.304 317.184 778.617 317.184C776.369 317.184 774.256 316.708 772.408 315.613C770.549 314.512 769.147 312.895 768.158 310.918C766.318 307.238 765.537 302.278 765.537 296.328C765.537 288.467 767.919 273.857 772.516 252.789C776.182 235.226 777.921 224.431 777.921 220.008C777.921 217.618 777.097 216.168 775.585 215.16C773.859 214.009 770.891 213.216 766.233 213.216C760.136 213.216 756.366 214.348 754.283 216.015C752.136 217.732 750.054 221.223 748.385 227.156L748.38 227.175L748.375 227.193C744.958 238.772 742.104 251.322 739.818 264.845C738.075 275.941 737.067 285.326 736.777 293.022L736.735 294.145L735.964 294.964C730.475 300.799 725.478 305.508 720.979 309.052C714.101 314.472 706.147 317.184 697.235 317.184C686.109 317.184 677.587 312.684 672.193 303.622L672.179 303.6L672.166 303.576C667.137 294.776 664.859 280.058 664.859 260.04C664.859 254.605 665.053 247.07 665.437 237.456L665.552 234.576H703.571C714.211 234.576 721.688 232.934 726.415 230.048C730.902 227.308 733.115 223.336 733.115 217.704C733.115 214.204 732.425 212.785 731.977 212.337C731.458 211.818 730.221 211.2 727.475 211.2H687.3L693.231 205.953C717.633 184.366 729.659 159.232 729.659 130.44C729.659 120.112 727.448 111.791 723.23 105.289C719.142 98.9861 713.727 96 706.739 96C696.861 96 687.338 100.643 678.134 110.58C669.048 120.596 661.157 134.16 654.531 151.389C647.898 168.635 642.955 187.721 639.72 208.658L639.327 211.2H620.339C616.676 211.2 614.407 212.307 612.957 214.111C611.407 216.041 610.379 219.275 610.379 224.328C610.379 228.564 611.266 231.015 612.429 232.335C613.67 233.529 616.524 234.576 622.067 234.576H636.505L636.292 237.776C635.72 246.351 635.435 254.828 635.435 263.208C635.435 269.311 635.678 275.057 636.162 280.447L636.37 282.755L634.189 283.538C633.07 283.94 631.887 284.75 630.667 286.168C622.011 296.555 615.004 304.254 609.678 309.185C604.431 314.043 599.366 317.184 594.68 317.184C592.431 317.184 590.318 316.708 588.47 315.613C586.612 314.512 585.209 312.895 584.22 310.918C582.38 307.238 581.6 302.278 581.6 296.328C581.6 288.467 583.982 273.857 588.578 252.789C592.245 235.226 593.984 224.431 593.984 220.008C593.984 217.618 593.159 216.168 591.648 215.16C589.922 214.009 586.953 213.216 582.296 213.216C576.198 213.216 572.429 214.348 570.346 216.015C568.199 217.732 566.116 221.223 564.448 227.156L564.443 227.175L564.437 227.193C561.02 238.772 558.167 251.322 555.88 264.845C554.106 276.14 553.094 285.661 552.825 293.431L552.788 294.502L552.081 295.307C546.777 301.346 542.285 306.08 538.621 309.473L538.598 309.494L538.576 309.514C533.276 314.225 528.142 317.184 523.335 317.184C520.17 317.184 517.435 315.951 515.332 313.585L515.267 313.512L515.206 313.434C513.34 311.034 512.559 308.016 512.559 304.68C512.559 295.707 514.827 280.081 519.238 258.028C522.134 242.771 523.503 233.487 523.503 229.8C523.503 227.229 522.658 225.701 521.231 224.681C519.617 223.529 516.828 222.72 512.391 222.72C508.149 222.72 504.113 223.089 500.28 223.819L497.435 224.361L496.793 221.537C496.075 218.5 494.755 215.255 493.853 214.353L493.721 214.221L493.606 214.074C493.184 213.531 491.711 212.64 487.622 212.64C475.06 212.64 463.082 216.632 451.631 224.759L451.623 224.764C440.34 232.718 431.241 243.373 424.339 256.803L424.335 256.811L424.331 256.818C423.533 258.349 422.782 259.89 422.078 261.442L421.424 262.881L419.867 263.156C412.16 264.515 405.61 265.346 400.244 265.628L395.497 265.878L397.314 261.485C401.827 250.579 403.998 241.092 403.998 232.968C403.998 225.893 402.362 221.069 399.584 217.983L399.56 217.956L399.536 217.928C396.681 214.597 393.019 212.928 388.278 212.928C382.6 212.928 377.58 214.632 373.115 218.066C368.532 221.592 364.887 226.193 362.195 231.937C359.494 237.699 358.158 243.602 358.158 249.672C358.158 256.979 359.527 263.109 362.143 268.166L362.889 269.608L362.089 271.022C359.163 276.192 353.396 285.478 348.117 293.463C345.477 297.456 342.93 301.167 340.9 303.896C339.892 305.252 338.97 306.422 338.205 307.275C337.83 307.693 337.428 308.108 337.028 308.442C336.83 308.607 336.563 308.811 336.245 308.987C335.984 309.132 335.372 309.44 334.558 309.44C333.538 309.44 332.82 308.956 332.45 308.621C332.089 308.294 331.872 307.949 331.757 307.748C331.525 307.339 331.383 306.913 331.295 306.619C331.106 305.985 330.945 305.177 330.802 304.302C330.51 302.514 330.219 300.002 329.935 296.998C329.363 290.969 328.795 282.732 328.291 273.834C327.284 256.044 326.526 235.451 326.526 224.328C326.526 219.166 325.478 216.458 324.237 215.217C317.952 208.931 305.075 211 301.974 221.262ZM698.963 117.648C696.23 117.648 693.94 119.348 692.119 121.384C690.23 123.494 688.363 126.5 686.487 130.25L686.48 130.265L686.473 130.28C682.888 137.65 679.468 147.858 676.183 160.806L676.179 160.822L676.175 160.837C673.075 173.627 670.465 187.842 668.342 203.476L667.274 211.338L673.277 206.15C684.886 196.114 693.613 184.837 699.381 172.309C705.26 159.763 708.299 148.189 708.299 137.64C708.299 131.875 707.773 127.192 706.526 123.848C705.895 122.156 705.01 120.614 703.734 119.473C702.396 118.277 700.761 117.648 698.963 117.648ZM1017.79 286.184L1027.68 233.335L1023.97 233.425C1015.3 233.636 1007.35 237.037 1000.19 243.378C993.065 249.489 987.443 257.572 983.265 267.518C979.074 277.498 976.983 288.07 976.983 299.208C976.983 305.452 978.175 310.678 981.097 314.33L981.134 314.376L981.172 314.421C984.304 318.034 988.531 319.776 993.519 319.776C999.292 319.776 1004.3 316.237 1008.59 310.512C1013.01 304.616 1016.01 296.428 1017.78 286.202L1017.79 286.184ZM483.94 290.008L495.336 233.336L491.583 233.425C482.735 233.636 474.598 237.025 467.233 243.367C460.104 249.479 454.477 257.566 450.297 267.518C446.105 277.498 444.015 288.07 444.015 299.208C444.015 305.453 445.206 310.678 448.128 314.33L448.165 314.376L448.203 314.421C451.335 318.034 455.562 319.776 460.551 319.776C466.094 319.776 470.905 316.472 475.024 311.117C479.216 305.668 482.144 298.586 483.935 290.031L483.937 290.019L483.94 290.008ZM1006.24 375.889L1008.18 367.113L1001.36 372.962C986.471 385.724 975.57 397.367 968.818 407.892C962.143 418.297 958.551 427.8 958.551 436.296C958.551 439.891 959.183 443.115 960.646 445.797L960.694 445.885L960.748 445.971C962.734 449.091 965.891 450.528 969.615 450.528C973.249 450.528 976.535 448.368 979.44 445.255C982.394 442.09 985.371 437.502 988.401 431.641C994.74 419.746 1000.66 401.088 1006.24 375.889Z" fill="white"/>
<path d="M573.304 155.47C578.075 151.381 583.982 149.28 591.224 149.28C597.839 149.28 602.894 150.883 606.655 153.826C610.243 156.635 612.128 160.602 612.128 166.152C612.128 173.103 609.906 178.397 605.628 182.358C601.31 186.167 595.459 188.208 587.768 188.208C580.118 188.208 574.932 186.476 571.665 183.537C568.366 180.38 566.576 175.961 566.576 169.896C566.576 164.068 568.772 159.331 573.297 155.476L573.304 155.47Z" fill="white"/>
<path d="M757.242 155.47C762.012 151.381 767.92 149.28 775.161 149.28C781.777 149.28 786.831 150.883 790.592 153.826C794.181 156.635 796.065 160.602 796.065 166.152C796.065 173.103 793.844 178.397 789.566 182.358C785.247 186.167 779.397 188.208 771.705 188.208C764.056 188.208 758.87 186.476 755.602 183.537C752.303 180.38 750.513 175.961 750.513 169.896C750.513 164.068 752.709 159.331 757.235 155.476L757.242 155.47Z" fill="white"/>
</svg>
