<svg xmlns="http://www.w3.org/2000/svg" version="1.1" xmlns:xlink="http://www.w3.org/1999/xlink" xmlns:svgjs="http://svgjs.com/svgjs" viewBox="0 0 64 64" width="64" height="64"><g transform="matrix(2.6666666666666665,0,0,2.6666666666666665,0,0)"><path d="M0.75 22.75L23.25 22.75" fill="none" stroke="#19b58b" stroke-linecap="round" stroke-linejoin="round" stroke-width="1.5"></path><path d="M23.25 9.25L0.75 9.25" fill="none" stroke="#19b58b" stroke-linecap="round" stroke-linejoin="round" stroke-width="1.5"></path><path d="M16.5,6.25l-3.3-4.4a1.5,1.5,0,0,0-2.4,0L7.5,6.25" fill="none" stroke="#19b58b" stroke-linecap="round" stroke-linejoin="round" stroke-width="1.5"></path><path d="M7.5 19.749L7.5 12.249" fill="none" stroke="#19b58b" stroke-linecap="round" stroke-linejoin="round" stroke-width="1.5"></path><path d="M7.5,12.249h.75a2.25,2.25,0,1,1,0,4.5H7.5" fill="none" stroke="#19b58b" stroke-linecap="round" stroke-linejoin="round" stroke-width="1.5"></path><path d="M3,12.25a1.5,1.5,0,0,0-1.5,1.5v4.5a1.5,1.5,0,0,0,3,0v-4.5A1.5,1.5,0,0,0,3,12.25Z" fill="none" stroke="#19b58b" stroke-linecap="round" stroke-linejoin="round" stroke-width="1.5"></path><path d="M16.5,19.749H15a1.5,1.5,0,0,1-1.5-1.5v-4.5a1.5,1.5,0,0,1,1.5-1.5h1.5" fill="none" stroke="#19b58b" stroke-linecap="round" stroke-linejoin="round" stroke-width="1.5"></path><path d="M13.5 16.749L16.5 16.749" fill="none" stroke="#19b58b" stroke-linecap="round" stroke-linejoin="round" stroke-width="1.5"></path><path d="M19.5 19.749L19.5 12.249 22.5 19.749 22.5 12.249" fill="none" stroke="#19b58b" stroke-linecap="round" stroke-linejoin="round" stroke-width="1.5"></path></g></svg>