<svg xmlns="http://www.w3.org/2000/svg" version="1.1" xmlns:xlink="http://www.w3.org/1999/xlink" xmlns:svgjs="http://svgjs.com/svgjs" viewBox="0 0 64 64" width="64" height="64"><g transform="matrix(2.6666666666666665,0,0,2.6666666666666665,0,0)"><path d="M20.252,9V5.249a1.5,1.5,0,0,0-1.5-1.5h-4" fill="none" stroke="#19b58b" stroke-linecap="round" stroke-linejoin="round" stroke-width="1.5"></path><path d="M6.252,3.749h-4a1.5,1.5,0,0,0-1.5,1.5v16.5a1.5,1.5,0,0,0,1.5,1.5H10.5" fill="none" stroke="#19b58b" stroke-linecap="round" stroke-linejoin="round" stroke-width="1.5"></path><path d="M14.423,4.736a.751.751,0,0,1-.711.513H7.293a.751.751,0,0,1-.712-.513l-1-3A.749.749,0,0,1,6.293.749h8.419a.749.749,0,0,1,.711.987Z" fill="none" stroke="#19b58b" stroke-linecap="round" stroke-linejoin="round" stroke-width="1.5"></path><path d="M8.252,20.249H4.5a.75.75,0,0,1-.75-.75V6.749" fill="none" stroke="#19b58b" stroke-linecap="round" stroke-linejoin="round" stroke-width="1.5"></path><path d="M17.252 6.749L17.252 8.249" fill="none" stroke="#19b58b" stroke-linecap="round" stroke-linejoin="round" stroke-width="1.5"></path><path d="M11.250 17.249 A6.000 6.000 0 1 0 23.250 17.249 A6.000 6.000 0 1 0 11.250 17.249 Z" fill="none" stroke="#19b58b" stroke-linecap="round" stroke-linejoin="round" stroke-width="1.5"></path><path d="M19.924,15.5l-2.905,3.874a.751.751,0,0,1-1.131.08l-1.5-1.5" fill="none" stroke="#19b58b" stroke-linecap="round" stroke-linejoin="round" stroke-width="1.5"></path><path d="M6.752 9.749L11.252 9.749" fill="none" stroke="#19b58b" stroke-linecap="round" stroke-linejoin="round" stroke-width="1.5"></path><path d="M6.752 14.249L8.252 14.249" fill="none" stroke="#19b58b" stroke-linecap="round" stroke-linejoin="round" stroke-width="1.5"></path></g></svg>