<svg xmlns="http://www.w3.org/2000/svg" version="1.1" xmlns:xlink="http://www.w3.org/1999/xlink" xmlns:svgjs="http://svgjs.com/svgjs" viewBox="0 0 64 64" width="64" height="64"><g transform="matrix(2.6666666666666665,0,0,2.6666666666666665,0,0)"><path d="M18,11.289v9.229a2.733,2.733,0,0,1-2.733,2.732H8.733A2.732,2.732,0,0,1,6,20.518V9.029" fill="none" stroke="#19b58b" stroke-linecap="round" stroke-linejoin="round" stroke-width="1.5"></path><path d="M6.001 18.75L18.001 18.75" fill="none" stroke="#19b58b" stroke-linecap="round" stroke-linejoin="round" stroke-width="1.5"></path><path d="M11.945,10.556a2.357,2.357,0,0,0,1.674.694H15v3l3.039-3h2.092A2.369,2.369,0,0,0,22.5,8.882V5.369A2.369,2.369,0,0,0,20.132,3H16.5" fill="none" stroke="#19b58b" stroke-linecap="round" stroke-linejoin="round" stroke-width="1.5"></path><path d="M15.376 6.75L15.376 6.75" fill="none" stroke="#19b58b" stroke-linecap="round" stroke-linejoin="round" stroke-width="1.5"></path><path d="M15.376,6.75a.375.375,0,1,0,.375.375.375.375,0,0,0-.375-.375" fill="none" stroke="#19b58b" stroke-linecap="round" stroke-linejoin="round" stroke-width="1.5"></path><path d="M19.126 6.75L19.126 6.75" fill="none" stroke="#19b58b" stroke-linecap="round" stroke-linejoin="round" stroke-width="1.5"></path><path d="M19.126,6.75a.375.375,0,1,0,.375.375.375.375,0,0,0-.375-.375" fill="none" stroke="#19b58b" stroke-linecap="round" stroke-linejoin="round" stroke-width="1.5"></path><path d="M3.869.75h6.513a2.369,2.369,0,0,1,2.369,2.369V5.882A2.369,2.369,0,0,1,10.382,8.25H8.251v3l-3.04-3H3.869A2.368,2.368,0,0,1,1.5,5.882V3.119A2.369,2.369,0,0,1,3.869.75Z" fill="none" stroke="#19b58b" stroke-linecap="round" stroke-linejoin="round" stroke-width="1.5"></path><path d="M9.126 4.5L9.126 4.5" fill="none" stroke="#19b58b" stroke-linecap="round" stroke-linejoin="round" stroke-width="1.5"></path><path d="M9.126,4.5a.375.375,0,1,1-.375.375A.375.375,0,0,1,9.126,4.5" fill="none" stroke="#19b58b" stroke-linecap="round" stroke-linejoin="round" stroke-width="1.5"></path><path d="M5.126 4.5L5.126 4.5" fill="none" stroke="#19b58b" stroke-linecap="round" stroke-linejoin="round" stroke-width="1.5"></path><path d="M5.126,4.5a.375.375,0,1,1-.375.375A.375.375,0,0,1,5.126,4.5" fill="none" stroke="#19b58b" stroke-linecap="round" stroke-linejoin="round" stroke-width="1.5"></path></g></svg>